<svg width="60" height="60" viewBox="0 0 60 60" fill="none" xmlns="http://www.w3.org/2000/svg">
<g opacity="0.8">
<path fill-rule="evenodd" clip-rule="evenodd" d="M16.5431 21.255C17.9775 19.6397 19.9022 18.7491 21.9637 18.7491C24.0253 18.7491 25.95 19.6397 27.3844 21.2541C28.095 22.0556 29.0194 22.4972 29.9906 22.5H30.0075C30.9787 22.4972 31.905 22.0556 32.6156 21.2541C34.0491 19.6397 35.9738 18.7491 38.0334 18.7491C38.0353 18.7491 38.0353 18.7491 38.0353 18.7491C40.0969 18.7491 42.0216 19.6378 43.4569 21.2541C43.4906 21.2925 43.5319 21.3197 43.5666 21.3563C44.4778 19.4259 45 17.2772 45 15C45 6.71625 38.2838 0 30 0C21.7153 0 15 6.71625 15 15C15 17.2772 15.5222 19.4259 16.4316 21.3572C16.4672 21.3197 16.5084 21.2934 16.5431 21.255Z" fill="#FFCC66"/>
<path fill-rule="evenodd" clip-rule="evenodd" d="M59.5274 26.88C58.0959 25.2638 56.1712 24.3741 54.1096 24.3741C54.1077 24.3741 54.1077 24.3741 54.1077 24.3741C52.0462 24.3741 50.1196 25.2638 48.6862 26.8791C47.9737 27.6825 47.0437 28.126 46.0696 28.126C46.0696 28.126 46.0696 28.126 46.0677 28.126C45.0955 28.1241 44.1693 27.6825 43.4587 26.8791C42.0234 25.2628 40.0987 24.3741 38.0371 24.3741C38.0371 24.3741 38.0371 24.3741 38.0352 24.3741C35.9755 24.3741 34.0509 25.2638 32.6174 26.8791C31.9049 27.6825 30.9749 28.126 30.0009 28.126C29.0268 28.126 28.0987 27.6825 27.3862 26.8791C25.9518 25.2638 24.0271 24.3741 21.9655 24.3741C19.904 24.3741 17.9793 25.2638 16.5449 26.88C15.1199 28.4869 12.7396 28.4878 11.3155 26.8791C9.88117 25.2638 7.95648 24.3741 5.89492 24.3741C3.83336 24.3741 1.90867 25.2638 0.474293 26.8791C-0.212895 27.6535 -0.141645 28.8394 0.631793 29.5275C1.40804 30.2138 2.59211 30.1416 3.27929 29.37C4.70429 27.7631 7.08648 27.765 8.51054 29.3681C9.94492 30.9844 11.8696 31.8769 13.9302 31.8769C15.9909 31.8769 17.9155 30.9844 19.3499 29.37C20.7749 27.7631 23.1571 27.765 24.5812 29.3681C26.0146 30.9844 27.9393 31.8741 29.9999 31.8769C32.0615 31.8741 33.9862 30.9844 35.4215 29.37C36.8465 27.7631 39.2305 27.765 40.6509 29.3681C42.0824 30.9825 44.0052 31.8741 46.0649 31.8769C46.0668 31.8769 46.0687 31.8769 46.0687 31.8769C48.1302 31.8741 50.0549 30.9872 51.4902 29.37C52.2027 28.5666 53.1309 28.1241 54.1068 28.1241C55.0809 28.1241 56.009 28.5666 56.7215 29.3681C57.4077 30.1416 58.5927 30.211 59.3671 29.5275C60.1443 28.8403 60.2146 27.6553 59.5274 26.88ZM47.5396 36.255C46.8712 37.0585 45.9974 37.5028 45.0834 37.5028C45.0834 37.5028 45.0834 37.5028 45.0815 37.5028C44.1693 37.501 43.3002 37.0585 42.6327 36.255C41.2846 34.6378 39.479 33.7491 37.543 33.7491C37.543 33.7491 37.543 33.7491 37.5421 33.7491C35.608 33.751 33.8015 34.6397 32.4562 36.255C31.7868 37.0585 30.913 37.5028 29.9999 37.5028C29.0849 37.501 28.2149 37.0585 27.5455 36.255C26.1984 34.6397 24.3927 33.7491 22.4568 33.7491C20.5209 33.7491 18.7152 34.6397 17.368 36.255C16.0312 37.8628 13.7962 37.8628 12.4602 36.255C11.8143 35.4816 10.7015 35.4103 9.97585 36.0985C9.24929 36.7838 9.18085 37.9716 9.82773 38.745C11.174 40.3613 12.9805 41.2528 14.9146 41.2528C16.8496 41.2528 18.6552 40.3613 20.0024 38.745C21.3402 37.1372 23.5762 37.1372 24.913 38.745C26.2593 40.3613 28.0649 41.251 29.9999 41.2528C31.9349 41.251 33.7415 40.3613 35.0896 38.745C36.4265 37.1372 38.6643 37.14 39.9974 38.7441C41.3418 40.3585 43.1465 41.251 45.0805 41.2528C45.0815 41.2528 45.0834 41.2528 45.0834 41.2528C47.0184 41.2528 48.8249 40.3631 50.173 38.745C50.818 37.9716 50.7524 36.7866 50.0259 36.0985C49.2974 35.4103 48.1874 35.4797 47.5396 36.255Z" fill="white"/>
</g>
</svg>
