<svg width="60" height="60" fill="none" xmlns="http://www.w3.org/2000/svg"><g opacity=".8" fill-rule="evenodd" clip-rule="evenodd"><path d="M16.543 21.255c1.434-1.615 3.36-2.506 5.42-2.506 2.062 0 3.987.89 5.421 2.505.711.802 1.635 1.243 2.607 1.246h.017c.97-.003 1.897-.444 2.608-1.246 1.433-1.614 3.358-2.505 5.417-2.505h.002c2.062 0 3.987.889 5.422 2.505.034.038.075.066.11.102A14.84 14.84 0 0045 15c0-8.284-6.716-15-15-15-8.285 0-15 6.716-15 15 0 2.277.522 4.426 1.432 6.357.035-.037.076-.064.111-.102z" fill="#FC6"/><path d="M59.527 26.88c-1.431-1.616-3.356-2.506-5.417-2.506h-.002c-2.062 0-3.988.89-5.422 2.505-.712.803-1.642 1.247-2.616 1.247h-.002c-.972-.002-1.899-.444-2.61-1.247-1.435-1.616-3.36-2.505-5.42-2.505h-.003c-2.06 0-3.984.89-5.418 2.505-.712.803-1.642 1.247-2.616 1.247-.974 0-1.902-.444-2.615-1.247-1.434-1.615-3.359-2.505-5.42-2.505-2.062 0-3.987.89-5.421 2.506-1.425 1.607-3.805 1.608-5.23 0-1.434-1.616-3.359-2.506-5.42-2.506-2.062 0-3.986.89-5.42 2.505a1.878 1.878 0 00.157 2.648 1.88 1.88 0 002.647-.157c1.425-1.607 3.807-1.605 5.232-.002 1.434 1.616 3.359 2.509 5.42 2.509 2.06 0 3.985-.893 5.419-2.507 1.425-1.607 3.807-1.605 5.231-.002 1.434 1.616 3.358 2.506 5.419 2.509 2.062-.003 3.986-.893 5.422-2.507 1.425-1.607 3.809-1.605 5.229-.002 1.431 1.615 3.354 2.506 5.414 2.509h.004c2.061-.003 3.986-.89 5.421-2.507.713-.803 1.64-1.246 2.617-1.246.974 0 1.902.443 2.614 1.244a1.878 1.878 0 002.646.16 1.874 1.874 0 00.16-2.648zM47.54 36.255c-.669.803-1.543 1.248-2.457 1.248h-.002c-.912-.002-1.78-.444-2.448-1.248-1.348-1.617-3.154-2.506-5.09-2.506-1.935.002-3.742.89-5.087 2.506-.67.803-1.543 1.248-2.456 1.248-.915-.002-1.785-.444-2.454-1.248-1.348-1.615-3.153-2.506-5.09-2.506-1.935 0-3.74.89-5.088 2.506-1.337 1.608-3.572 1.608-4.908 0-.646-.773-1.759-.845-2.484-.157-.727.686-.795 1.874-.148 2.647 1.346 1.616 3.152 2.508 5.087 2.508 1.935 0 3.74-.892 5.087-2.508 1.338-1.608 3.574-1.608 4.911 0 1.346 1.616 3.152 2.506 5.087 2.508 1.935-.002 3.742-.892 5.09-2.508 1.336-1.608 3.574-1.605 4.907 0 1.345 1.614 3.15 2.506 5.084 2.508h.002c1.935 0 3.742-.89 5.09-2.508.645-.773.58-1.958-.147-2.646-.729-.689-1.839-.62-2.486.156z" fill="#fff"/></g></svg>