<svg width="1439" height="159" viewBox="0 0 1439 159" fill="none" xmlns="http://www.w3.org/2000/svg">
<path d="M0 0L34.3 13.2293C68.6 26.707 137 52.793 206 56.3332C274.3 59.625 343 39.75 411 43.0418C480 46.582 549 72.668 617 66.2707C685.7 59.625 754 19.875 823 16.5832C891.4 13.043 960 46.582 1029 72.8543C1097.1 99.375 1166 119.25 1234 122.542C1302.9 126.082 1371 112.418 1406 106.021L1440 99.375V159H1405.7C1371.4 159 1303 159 1234 159C1165.7 159 1097 159 1029 159C960 159 891 159 823 159C754.3 159 686 159 617 159C548.6 159 480 159 411 159C342.9 159 274 159 206 159C137.1 159 69 159 34 159H0V0Z" fill="#F9FBFC"/>
</svg>
