<svg width="28" height="11" fill="none" xmlns="http://www.w3.org/2000/svg"><path d="M27.038 8.29a4.732 4.732 0 01-1.1-1.068c-.734-.833-1.667-1.866-3.4-1.866-1.734 0-2.634 1-3.4 1.9-.767.9-1.267 1.433-2.4 1.433-1.134 0-1.7-.633-2.4-1.433s-1.634-1.9-3.4-1.9c-1.767 0-2.634 1-3.4 1.9-.767.9-1.267 1.433-2.4 1.433-1.134 0-1.7-.633-2.4-1.433A5.667 5.667 0 00.97 5.722a.67.67 0 10-.6 1.2 5.16 5.16 0 011.367 1.2c.766.9 1.666 1.9 3.4 1.9 1.733 0 2.633-1 3.4-1.9.766-.9 1.266-1.433 2.4-1.433 1.133 0 1.7.633 2.4 1.433s1.633 1.9 3.4 1.9c1.766 0 2.633-1 3.4-1.9.766-.9 1.266-1.433 2.4-1.433 1.133 0 1.7.633 2.4 1.433.388.5.849.937 1.366 1.3a.675.675 0 00.734-1.133zm0-5.334a4.732 4.732 0 01-1.1-1.067c-.734-.833-1.667-1.867-3.4-1.867-1.734 0-2.634 1-3.4 1.9-.767.9-1.267 1.434-2.4 1.434-1.134 0-1.7-.634-2.4-1.434-.7-.8-1.634-1.9-3.4-1.9-1.767 0-2.634 1-3.4 1.9-.767.9-1.267 1.434-2.4 1.434-1.134 0-1.7-.634-2.4-1.434A5.667 5.667 0 00.97.39a.67.67 0 10-.6 1.2 5.16 5.16 0 011.367 1.2c.766.9 1.666 1.9 3.4 1.9 1.733 0 2.633-1 3.4-1.9.766-.9 1.266-1.433 2.4-1.433 1.133 0 1.7.633 2.4 1.433s1.633 1.9 3.4 1.9c1.766 0 2.633-1 3.4-1.9.766-.9 1.266-1.433 2.4-1.433 1.133 0 1.7.633 2.4 1.433.388.499.849.937 1.366 1.3a.675.675 0 00.734-1.133z" fill="#4C7897"/></svg>