<svg width="28" height="11" viewBox="0 0 28 11" fill="none" xmlns="http://www.w3.org/2000/svg">
<path d="M27.0375 8.28909C26.6153 7.99567 26.2438 7.63538 25.9375 7.22245C25.2042 6.38914 24.2709 5.3558 22.5375 5.3558C20.8042 5.3558 19.9042 6.35577 19.1375 7.25582C18.3709 8.15581 17.8709 8.68913 16.7375 8.68913C15.6042 8.68913 15.0375 8.05577 14.3376 7.25582C13.6376 6.45581 12.7042 5.3558 10.9376 5.3558C9.1709 5.3558 8.30428 6.35577 7.53758 7.25582C6.77093 8.15581 6.27092 8.68913 5.13761 8.68913C4.00429 8.68913 3.43761 8.05577 2.73764 7.25582C2.2618 6.62737 1.66009 6.10516 0.970963 5.72247C0.639576 5.55678 0.236668 5.69108 0.0709744 6.02247C-0.0947189 6.35386 0.039584 6.75676 0.370971 6.92246C0.894337 7.23789 1.35716 7.64431 1.73761 8.12244C2.50425 9.02243 3.40424 10.0225 5.13761 10.0225C6.87097 10.0225 7.7709 9.0225 8.53761 8.12244C9.30425 7.22245 9.80426 6.68913 10.9376 6.68913C12.0709 6.68913 12.6376 7.3225 13.3375 8.12244C14.0375 8.92245 14.9709 10.0225 16.7375 10.0225C18.5042 10.0225 19.3708 9.0225 20.1375 8.12244C20.9042 7.22245 21.4042 6.68913 22.5375 6.68913C23.6708 6.68913 24.2375 7.3225 24.9375 8.12244C25.326 8.62125 25.7866 9.05937 26.3041 9.42241C26.6171 9.62491 27.035 9.5354 27.2375 9.22239C27.4401 8.9095 27.3505 8.4916 27.0375 8.28909Z" fill="#4C7897"/>
<path d="M27.0375 2.95575C26.6153 2.66232 26.2438 2.30204 25.9375 1.88911C25.2042 1.05579 24.2709 0.0224609 22.5375 0.0224609C20.8042 0.0224609 19.9042 1.02243 19.1375 1.92248C18.3708 2.82253 17.8709 3.35579 16.7375 3.35579C15.6042 3.35579 15.0375 2.72243 14.3376 1.92248C13.6376 1.12253 12.7042 0.0224609 10.9376 0.0224609C9.1709 0.0224609 8.30428 1.02243 7.53758 1.92248C6.77093 2.82247 6.27092 3.35579 5.13761 3.35579C4.00429 3.35579 3.43761 2.72243 2.73764 1.92248C2.2618 1.29403 1.66009 0.771813 0.970963 0.38913C0.639576 0.223436 0.236668 0.357739 0.0709744 0.689126C-0.0947189 1.02051 0.039584 1.42342 0.370971 1.58911C0.894337 1.90455 1.35716 2.31097 1.73761 2.7891C2.50425 3.68909 3.40424 4.68912 5.13761 4.68912C6.87097 4.68912 7.7709 3.68915 8.53761 2.7891C9.30425 1.88911 9.80426 1.35579 10.9376 1.35579C12.0709 1.35579 12.6376 1.98915 13.3375 2.7891C14.0375 3.58905 14.9709 4.68912 16.7375 4.68912C18.5042 4.68912 19.3708 3.68915 20.1375 2.7891C20.9043 1.88905 21.4042 1.35579 22.5375 1.35579C23.6708 1.35579 24.2375 1.98915 24.9375 2.7891C25.326 3.2879 25.7866 3.72603 26.3041 4.08906C26.6171 4.29157 27.035 4.20205 27.2375 3.88904C27.4401 3.57616 27.3505 3.15826 27.0375 2.95575Z" fill="#4C7897"/>
</svg>
